<?xml version="1.0" encoding="utf-8"?>
<!-- Generator: Adobe Illustrator 26.1.0, SVG Export Plug-In . SVG Version: 6.00 Build 0)  -->
<svg version="1.1" id="Layer_1" xmlns="http://www.w3.org/2000/svg" xmlns:xlink="http://www.w3.org/1999/xlink" x="0px"
     y="0px"
     viewBox="0 0 1920 1080" style="enable-background:new 0 0 1920 1080;" xml:space="preserve">
<style type="text/css">
	.st0{fill:url(#SVGID_00000036943917582016699010000008168704434311435957_);}
	.st1{fill:url(#SVGID_00000103961486616646921420000002682654531715095711_);}
	.st2{clip-path:url(#SVGID_00000155851797836409291910000012546923571488505763_);}
	.st3{clip-path:url(#SVGID_00000031904892849596843760000007557004868599348125_);}
</style>
    <g>
	<g>
		<g>
			<g>
				
					<linearGradient id="SVGID_00000032623477731451222600000003477355658442037413_"
                                    gradientUnits="userSpaceOnUse" x1="390.987" y1="313.3204" x2="559.2671"
                                    y2="313.3204" gradientTransform="matrix(0.866 -0.5 -0.5 -0.866 219.1223 1271.1483)">
					<stop offset="0" style="stop-color:#00FFD5"/>
                        <stop offset="0.8206" style="stop-color:#209AF7"/>
				</linearGradient>
                <path id="SVGID_1_" style="fill:url(#SVGID_00000032623477731451222600000003477355658442037413_);" d="M427,698.6
					c37.6-21.7,85.8-8.9,107.5,28.7c21.7,37.6,8.8,85.7-28.9,107.4s-85.8,8.9-107.5-28.7C376.4,768.5,389.4,720.4,427,698.6z				">
<animateTransform accumulate="none" additive="replace" attributeName="transform" attributeType="XML" calcMode="linear"
                  dur="10s" fill="remove" repeatCount="indefinite" restart="always" type="translate"
                  values="0,0;0,-20; 0,0">
						</animateTransform>
				</path>
			</g>
		</g>
	</g>
</g>
    <g>
	<g>
		<g>
			<g>
				
					<linearGradient id="SVGID_00000091008963602999814270000018093896255614996895_"
                                    gradientUnits="userSpaceOnUse" x1="424.0324" y1="648.4131" x2="936.6224"
                                    y2="648.4131" gradientTransform="matrix(-0.5 -0.866 -0.866 0.5 1582.0394 696.407)">
					<stop offset="0" style="stop-color:#00EAFF"/>
                        <stop offset="0.8206" style="stop-color:#207DF7"/>
				</linearGradient>
                <path id="SVGID_3_" style="fill:url(#SVGID_00000091008963602999814270000018093896255614996895_);" d="M458.2,559.7
					c-70.8-122.6-28.7-279.4,94-350.2s279.5-28.9,350.3,93.7s28.7,279.4-94,350.2S528.9,682.3,458.2,559.7z				">
<animateTransform accumulate="none" additive="replace" attributeName="transform" attributeType="XML" calcMode="linear"
                  dur="25s" fill="remove" repeatCount="indefinite" restart="always" type="translate"
                  values="0,0;-15,-40;0,0">
						</animateTransform>
				</path>
			</g>
		</g>
	</g>
</g>
    <g>
	<g>
		<g>
			<g>
				<g id="SVGID_5_">
					<g>
						<g>
							<defs>
								<path id="SVGID_00000037672291327248965910000015771015341306190751_" d="M1656.3,1080c34.8-45.7,53.9-95.4,53.9-147.4
									c0-1.8,0-3.7-0.1-5.5c-1.6-60.7,11.8-120.8,39.1-176.1c24.2-49,37.7-103.4,37.7-160.6c0-214.8-189.8-389-423.8-389
									c-205.6,0-365.7,92-404.3,269.7c-0.4,1.7-0.6,3.3-0.8,5c-0.5,5.4-3.9,21-10.9,50.9c-26.9,116.8-156.6,219-350.8,248.3
									c-16.4,2.5-30.1,13.6-36.2,29.1c-14.6,36.6-52.9,62.7-97.8,62.7c-46.6,0-86-28.1-99.3-66.7c-5.5-15.9-18.8-27.7-35.3-30.9h0
									c-110.8-21.3-216.5,54.9-218.6,158.7c0,1.5,0,2.9,0,4.3c0,44.1,13.7,86.5,39.1,126.2c8.5,13.2,18.8,17.2,26.8,21.2H1656.3
									L1656.3,1080z"/>
							</defs>
                            <clipPath id="SVGID_00000106142641258251353610000000058359802842244280_">
								<use xlink:href="#SVGID_00000037672291327248965910000015771015341306190751_"
                                     style="overflow:visible;"/>
							</clipPath>
                            <g style="clip-path:url(#SVGID_00000106142641258251353610000000058359802842244280_);">
								<g>
									<g>
										<defs>
											
												<rect id="SVGID_00000181775548246611047550000005862761436669493935_"
                                                      x="104.1" y="196.4" width="1687.8" height="888.6"/>
										</defs>
                                        <clipPath id="SVGID_00000091719471746284199140000007671440053441902260_">
											<use xlink:href="#SVGID_00000181775548246611047550000005862761436669493935_"
                                                 style="overflow:visible;"/>
										</clipPath>
                                        <g style="clip-path:url(#SVGID_00000091719471746284199140000007671440053441902260_);">
											
												<image style="overflow:visible;enable-background:new    ;" width="3521"
                                                       height="1854" xlink:href="D442B152.jpg"
                                                       transform="matrix(0.4796 0 0 0.4796 103.7216 196.241)">
											</image>
										</g>
									</g>
								</g>
							</g>
						</g>

                        <animateTransform accumulate="none" additive="replace" attributeName="transform"
                                          attributeType="XML" calcMode="linear" dur="30s" fill="remove"
                                          repeatCount="indefinite" restart="always" type="translate"
                                          values="0,0;-5,35; 0,0">
							</animateTransform>
					</g>
				</g>
			</g>
		</g>
	</g>
</g>
</svg>
